<?xml version="1.0" encoding="utf-8"?>
<!-- Generator: Adobe Illustrator 23.0.5, SVG Export Plug-In . SVG Version: 6.00 Build 0)  -->
<svg version="1.1" id="Layer_1" xmlns="http://www.w3.org/2000/svg" xmlns:xlink="http://www.w3.org/1999/xlink" x="0px" y="0px"
	 viewBox="0 0 150 70" style="enable-background:new 0 0 150 70;" xml:space="preserve">
<g>
	<path d="M11.4,40.9c-2.8-2.7-5.3-5.7-7.2-9.2c-0.9-1.7-1.7-3.6-2.1-5.6c-0.4-2-0.5-4.1,0-6.1c0.5-2,1.4-3.9,2.8-5.5
		c1.3-1.6,2.9-2.9,4.6-4c0.8-0.6,1.7-1,2.6-1.5c0.9-0.4,1.8-0.9,2.7-1.2c0.9-0.4,1.9-0.7,2.8-1.1l2.8-0.9c3.9-1.1,8-1.5,12-1.4
		c2,0.1,4,0.3,5.9,0.6c2,0.3,3.9,0.6,5.9,1.1c3.9,1,7.7,2.4,11.3,4.1c0.9,0.4,1.8,0.9,2.6,1.4c0.9,0.4,1.8,1,2.7,1.5
		c1.7,1.1,3.3,2.4,4.8,3.8c1.5,1.4,2.9,2.9,4.1,4.6c0.6,0.8,1.1,1.7,1.7,2.6c0.2,0.5,0.5,0.9,0.7,1.4c0.2,0.5,0.5,0.9,0.6,1.5
		c1.5,3.9,2.1,8.4,1.1,12.5c-0.9,4.2-3,8-5.7,11.1c-2.7,3.1-5.9,5.7-9.2,7.9c-0.9,0.5-1.7,1-2.6,1.5c-0.9,0.5-1.8,1-2.7,1.4
		c-1.8,0.9-3.7,1.6-5.6,2.2c-3.8,1.2-7.8,2.1-11.9,2.2c-2,0-4.1-0.1-6.2-0.7c-1-0.3-2.1-0.7-3.1-1.3c-1-0.6-1.9-1.5-2.5-2.6
		c-0.6-1.1-0.9-2.3-0.9-3.4c0-1.1,0.1-2.2,0.3-3.3c0.5-2.1,1.3-3.9,2.3-5.7l0-0.1l0,0c3.7-5.5,7.4-11,11.2-16.5l5.7-8.2l5.7-8.2
		l-5,8.6l-5.1,8.6c-3.4,5.7-6.9,11.4-10.3,17l0.1-0.1c-0.8,1.7-1.5,3.4-1.8,5.2c-0.3,1.7-0.3,3.4,0.5,4.6c0.7,1.2,2.2,2,3.8,2.4
		c1.7,0.4,3.5,0.5,5.3,0.4c3.7-0.2,7.3-1,10.9-2.3c1.8-0.6,3.5-1.3,5.1-2.2c0.8-0.4,1.6-0.9,2.4-1.3c0.8-0.5,1.6-1,2.4-1.5
		c3.1-2,6-4.4,8.3-7.2c2.4-2.7,4-6,4.8-9.4c0.7-3.4,0.3-7-0.9-10.3c-0.1-0.4-0.3-0.8-0.5-1.2l-0.6-1.2c-0.5-0.8-0.9-1.5-1.4-2.3
		c-1-1.5-2.3-2.8-3.6-4.1c-1.3-1.2-2.8-2.4-4.3-3.4c-0.8-0.5-1.5-1-2.3-1.4c-0.9-0.5-1.7-0.9-2.5-1.4c-3.3-1.7-6.8-3.1-10.5-4.1
		c-1.8-0.5-3.6-0.9-5.5-1.2c-1.9-0.3-3.8-0.6-5.6-0.7c-3.7-0.3-7.5,0-11.1,0.9c-3.7,0.9-7.3,2.1-10.5,4c-3.2,1.9-6,4.5-7,8
		c-1,3.5-0.2,7.4,1.4,10.8C6.6,34.7,8.8,38,11.4,40.9z"/>
</g>
<g>
	<path d="M20.5,62.2c0.4-0.8,0.8-1.5,1.1-2.2c0.2-0.4,0.3-0.7,0.4-1.1c0.1-0.4,0.3-0.7,0.4-1.1c0.1-0.4,0.1-0.8,0.1-1.1
		c0-0.4,0.1-0.7,0.4-1c0.2-0.3,0.5-0.6,0.9-0.9c0.4-0.3,0.8-0.6,1.4-0.9l0.4,0.1c0.5,0.5,0.8,1,0.9,1.5c0.2,0.5,0.2,1,0.2,1.5
		c0,0.5-0.2,0.9-0.5,1.3l-1,1.1c-0.6,0.7-1.3,1.4-2,1.9c-0.8,0.5-1.5,1-2.4,1.3L20.5,62.2z"/>
</g>
<g>
	<path d="M65.5,35c-1-0.1-2-0.4-2.9-0.7c-0.9-0.4-1.8-0.9-2.4-1.8c-0.6-0.8-0.8-2-0.7-3c0.1-1,0.5-2,0.9-2.9c0.9-1.8,2.1-3.4,3.4-5
		c1.3-1.5,2.7-3,4.1-4.4c2.9-2.8,5.9-5.4,9.2-7.7c3.3-2.3,6.8-4.3,10.5-6L89,2.9c0.5-0.2,1-0.4,1.5-0.6c1-0.3,2.1-0.5,3.2-0.5
		c1.1,0,2.3,0.1,3.4,0.5c0.6,0.2,1.1,0.4,1.6,0.7l0.8,0.6c0.2,0.2,0.4,0.4,0.6,0.7c0.8,0.9,1.3,2,1.6,3.1c0.3,1.1,0.4,2.2,0.5,3.2
		c0.1,2.1-0.1,4.2-0.4,6.2c-0.5,4-1.5,8.1-3.2,11.9c-1.6,3.8-3.8,7.3-6,10.6c-1.1,1.7-2.3,3.3-3.5,4.9c-1.2,1.6-2.4,3.2-3.7,4.8
		c-2.5,3.1-5.2,6.1-8.1,9c-0.7,0.7-1.5,1.4-2.3,2.1c-0.4,0.4-0.8,0.7-1.4,1.1c-0.2,0.1-0.3,0.2-0.5,0.3c-0.1,0.1-0.3,0.1-0.4,0.2
		l-0.1,0l-0.2,0c-0.1,0-0.3,0-0.4,0.1l-0.2,0c-0.1,0-0.2,0-0.4-0.1c-0.3-0.1-0.5-0.2-0.7-0.3c-0.2-0.1-0.5-0.4-0.6-0.6
		c-0.1-0.2-0.2-0.4-0.2-0.6c-0.1-0.6-0.1-0.8,0-1.1c0.2-0.9,0.4-1.3,0.6-1.9c0.2-0.5,0.4-1,0.7-1.5c0.5-0.9,1-1.8,1.5-2.7
		c2.1-3.5,4.3-6.9,6.7-10.1c1.2-1.6,2.4-3.2,3.7-4.8c1.3-1.6,2.6-3.1,4-4.6c2.7-3,5.5-5.8,8.5-8.6c1.5-1.4,3-2.7,4.6-4
		c1.6-1.3,3.3-2.5,5.4-3.5c0.5-0.2,1.1-0.5,1.8-0.6c0.6-0.2,1.5-0.2,2.5,0.1c1,0.3,1.9,1.3,2.2,2.1c0.3,0.8,0.4,1.5,0.5,2.1
		c0.1,2.5-0.4,4.5-0.9,6.5l0,0.1l-0.1,0.1l-6.3,14.9l-3.2,7.5c-0.3,0.6-0.5,1.2-0.6,1.6c0,0.1-0.1,0.2-0.1,0.3c0,0,0,0.1-0.1-0.3
		c0-0.1-0.1-0.3-0.2-0.4c-0.1-0.2-0.3-0.4-0.5-0.5c-0.2-0.1-0.5-0.2-0.6-0.2c-0.1,0-0.3,0-0.4,0c-0.1,0-0.1,0-0.2,0c0,0,0,0,0,0
		c0,0,0,0,0,0c0.3-0.1,0.8-0.6,1.3-1c0.5-0.4,0.9-0.9,1.4-1.3c1.9-1.8,3.7-3.8,5.5-5.8c1.8-2,3.7-3.9,5.6-5.9
		c3.8-3.9,7.7-7.6,11.8-11.2l3-2.7l1.5-1.3l0.8-0.7l0.4-0.3l0.5-0.3c2.2-1.6,4.5-3.1,7-4.4c1.3-0.6,2.5-1.2,4-1.7
		c0.7-0.2,1.5-0.4,2.4-0.3c0.2,0,0.5,0,0.7,0.1c0.3,0.1,0.5,0.1,0.8,0.2c0.3,0.1,0.5,0.3,0.7,0.5c0.2,0.2,0.4,0.4,0.6,0.6
		c0.1,0.2,0.3,0.5,0.4,0.7c0.1,0.2,0.1,0.5,0.2,0.7c0.1,0.5,0.1,0.9,0.1,1.3c0,0.8-0.2,1.6-0.3,2.3c-0.3,1.4-0.8,2.7-1.4,4
		c-0.5,1.3-1.1,2.5-1.7,3.8l-2,3.5l-4.1,7l-8.2,14l0.1-0.1l0,0l0,0.1l0,0.1c-1.2,2.2-2.1,4.6-2.4,7.1c-0.2,1.2-0.2,2.5,0,3.7
		c0.2,1.2,0.7,2.4,1.6,3c0.9,0.5,2.3,0.3,3.4-0.1c1.2-0.4,2.3-1.1,3.3-1.9c2-1.6,3.7-3.6,5-5.8c-1.2,2.3-2.8,4.4-4.7,6.1
		c-1,0.8-2.1,1.6-3.3,2.1c-1.2,0.5-2.7,0.9-4.1,0.2c-0.7-0.4-1.1-1-1.4-1.6c-0.3-0.6-0.5-1.3-0.7-1.9c-0.3-1.3-0.3-2.7-0.2-4
		c0.2-2.7,1.1-5.2,2.2-7.6l0,0.1l0,0l0,0l0-0.1l7.6-14.2l3.8-7.1l1.9-3.5c0.5-1.2,1.1-2.4,1.5-3.6c0.5-1.2,0.9-2.5,1.1-3.7
		c0.1-0.6,0.2-1.2,0.2-1.7c0-0.5-0.1-1-0.2-1.1c-0.1-0.1-0.2-0.2-0.7-0.2c-0.4,0-1,0.1-1.5,0.3c-1.1,0.3-2.3,0.9-3.4,1.5
		c-2.3,1.2-4.5,2.7-6.6,4.3c-1.9,1.6-3.9,3.5-5.9,5.3c-3.9,3.7-7.8,7.4-11.5,11.3c-1.9,1.9-3.7,3.9-5.5,5.9c-1.8,2-3.6,4-5.6,6
		c-0.5,0.5-1,1-1.5,1.5c-0.6,0.5-1.1,1-2,1.5c-0.1,0.1-0.2,0.1-0.4,0.2l-0.3,0.1c-0.1,0-0.3,0.1-0.4,0.1c-0.1,0-0.4,0-0.6,0
		c-0.2,0-0.6-0.1-0.8-0.3c-0.3-0.1-0.5-0.4-0.7-0.7c-0.1-0.2-0.3-0.5-0.3-0.6c-0.2-0.7-0.1-1-0.1-1.3c0-0.3,0.1-0.5,0.2-0.7
		c0.2-0.8,0.5-1.5,0.8-2.1l3.1-7.4l6.2-14.9l-0.1,0.3c0.5-1.8,0.9-3.8,0.8-5.3c0-0.4-0.1-0.7-0.1-0.8c-0.1-0.1,0,0.1,0.1,0.1
		c0,0-0.1,0-0.4,0.1c-0.3,0.1-0.6,0.2-1,0.4c-1.5,0.7-3.1,1.8-4.6,3c-1.5,1.2-3,2.5-4.4,3.8c-2.9,2.6-5.6,5.4-8.3,8.3
		c-1.3,1.5-2.6,2.9-3.8,4.4c-1.2,1.5-2.4,3.1-3.6,4.7c-2.3,3.1-4.5,6.4-6.5,9.7c-0.5,0.8-1,1.7-1.4,2.5c-0.2,0.4-0.4,0.8-0.6,1.2
		c-0.2,0.4-0.3,0.8-0.4,1c0,0,0,0,0-0.4c0-0.1-0.1-0.3-0.2-0.4c-0.1-0.2-0.3-0.4-0.5-0.5c-0.2-0.1-0.4-0.2-0.6-0.3
		c-0.1,0-0.2,0-0.3,0l-0.1,0c-0.1,0-0.1,0-0.2,0l-0.1,0l0,0c0,0,0,0,0,0l0.1-0.1c0.3-0.2,0.6-0.5,1-0.7c0.7-0.6,1.4-1.3,2.1-1.9
		c2.8-2.7,5.4-5.6,7.9-8.7c1.3-1.5,2.5-3,3.6-4.6c1.2-1.6,2.4-3.2,3.5-4.8c2.3-3.2,4.4-6.5,6-10c1.6-3.5,2.6-7.2,3.2-11
		c0.3-1.9,0.5-3.8,0.5-5.7c0-0.9-0.1-1.8-0.3-2.7c-0.2-0.8-0.5-1.6-1-2.2c-0.1-0.1-0.2-0.3-0.4-0.4c-0.1-0.1-0.3-0.2-0.4-0.3
		c-0.3-0.2-0.7-0.4-1.1-0.6C95.6,4.1,94.7,4,93.8,4c-0.9,0-1.8,0.1-2.7,0.4c-0.4,0.1-0.9,0.3-1.3,0.4l-1.4,0.6
		c-3.6,1.5-7.1,3.3-10.4,5.4c-3.3,2.1-6.4,4.6-9.3,7.2c-2.9,2.7-5.8,5.5-7.7,8.8c-0.5,0.9-0.9,1.7-1,2.7c-0.2,0.9-0.1,1.9,0.5,2.7
		c0.5,0.8,1.4,1.4,2.2,1.8C63.6,34.5,64.6,34.8,65.5,35z"/>
</g>
</svg>
